<?xml version="1.0" standalone="no"?>
<!DOCTYPE svg PUBLIC "-//W3C//DTD SVG 20010904//EN"
 "http://www.w3.org/TR/2001/REC-SVG-20010904/DTD/svg10.dtd">
<svg version="1.0" xmlns="http://www.w3.org/2000/svg"
 width="319.000000pt" height="319.000000pt" viewBox="0 0 319.000000 319.000000"
 preserveAspectRatio="xMidYMid meet">
<metadata>
Created by potrace 1.14, written by Peter Selinger 2001-2017
</metadata>
<g transform="translate(0.000000,319.000000) scale(0.100000,-0.100000)"
fill="#000000" stroke="none">
<path d="M1485 3168 c-11 -6 -37 -27 -58 -47 -37 -35 -67 -106 -67 -158 0 -23
-2 -23 -108 -23 l-108 0 -37 45 c-54 64 -99 75 -301 75 -106 -1 -173 -5 -198
-14 -43 -15 -91 -52 -108 -82 -11 -20 -22 -22 -159 -26 -100 -3 -157 -9 -182
-20 -55 -24 -110 -78 -135 -133 l-24 -50 0 -1250 0 -1250 24 -50 c28 -60 66
-97 126 -124 45 -20 58 -21 1425 -21 1367 0 1380 1 1425 21 60 27 98 64 126
124 l24 50 0 1250 0 1250 -24 50 c-25 55 -80 109 -135 133 -23 9 -82 17 -163
20 -123 4 -128 5 -128 27 0 12 -7 44 -15 71 -14 49 -64 109 -112 133 -30 15
-1060 15 -1088 -1z m-985 -648 c27 -27 25 -55 -6 -79 -24 -19 -40 -21 -161
-21 -129 0 -167 7 -185 34 -13 19 -9 49 9 68 14 16 34 18 170 18 140 0 155 -2
173 -20z m1190 -195 c198 -22 410 -140 540 -302 295 -368 243 -891 -118 -1193
-304 -254 -771 -253 -1075 1 -360 301 -412 824 -117 1192 136 170 346 283 568
306 76 8 93 8 202 -4z m-1205 -15 c23 -9 26 -15 23 -47 -2 -28 -9 -41 -28 -50
-30 -15 -256 -18 -294 -3 -50 19 -58 82 -13 100 31 12 280 12 312 0z"/>
<path d="M1495 2130 c-260 -30 -483 -228 -550 -489 -21 -81 -21 -236 0 -316
59 -227 232 -403 460 -466 113 -31 277 -24 385 16 207 77 362 246 415 453 21
82 21 232 0 314 -59 227 -237 409 -455 467 -91 24 -175 31 -255 21z m125 -210
c13 -24 12 -24 -80 -39 -173 -29 -306 -168 -327 -343 -6 -50 -12 -63 -27 -66
-28 -6 -33 12 -24 86 20 170 155 321 328 368 71 20 117 17 130 -6z m17 -300
c77 -34 109 -117 75 -194 -37 -82 -121 -113 -200 -74 -90 44 -116 156 -54 230
49 58 108 71 179 38z"/>
</g>
</svg>
